# MagicaVoxel @ Ephtracy

# group
o 

# material
mtllib FirstAidMed.mtl
usemtl palette

# normals
vn -1 0 0
vn 1 0 0
vn 0 0 1
vn 0 0 -1
vn 0 -1 0
vn 0 1 0

# texcoords
vt 0.900391 0.5
vt 0.958984 0.5
vt 0.986328 0.5

# verts
v -0.4 0 0.3
v -0.4 0 -0.4
v -0.4 0.8 0.3
v -0.4 0.8 -0.4
v -0.3 0.8 0.2
v -0.3 0.8 -0.3
v -0.3 0.9 0.2
v -0.3 0.9 -0.3
v -0.2 0.9 0.1
v -0.2 0.9 -0.2
v -0.2 1 0.1
v -0.2 1 -0.2
v -0.1 1 0
v -0.1 1 -0.1
v -0.1 1.1 0
v -0.1 1.1 -0.1
v 0 1 0
v 0 1 -0.1
v 0 1.1 0
v 0 1.1 -0.1
v 0.1 0.9 0.1
v 0.1 0.9 -0.2
v 0.1 1 0.1
v 0.1 1 -0.2
v 0.2 0.8 0.2
v 0.2 0.8 -0.3
v 0.2 0.9 0.2
v 0.2 0.9 -0.3
v 0.3 0 0.3
v 0.3 0 -0.4
v 0.3 0.8 0.3
v 0.3 0.8 -0.4
v -0.4 0 0.3
v -0.4 0.8 0.3
v -0.2 0.4 0.3
v -0.2 0.5 0.3
v -0.1 0.3 0.3
v -0.1 0.4 0.3
v -0.1 0.5 0.3
v -0.1 0.6 0.3
v 0 0.3 0.3
v 0 0.4 0.3
v 0 0.5 0.3
v 0 0.6 0.3
v 0.1 0.4 0.3
v 0.1 0.5 0.3
v 0.3 0 0.3
v 0.3 0.8 0.3
v -0.3 0.8 0.2
v -0.3 0.9 0.2
v 0.2 0.8 0.2
v 0.2 0.9 0.2
v -0.2 0.9 0.1
v -0.2 1 0.1
v 0.1 0.9 0.1
v 0.1 1 0.1
v -0.1 1 0
v -0.1 1.1 0
v 0 1 0
v 0 1.1 0
v -0.1 1 -0.1
v -0.1 1.1 -0.1
v 0 1 -0.1
v 0 1.1 -0.1
v -0.2 0.9 -0.2
v -0.2 1 -0.2
v 0.1 0.9 -0.2
v 0.1 1 -0.2
v -0.3 0.8 -0.3
v -0.3 0.9 -0.3
v 0.2 0.8 -0.3
v 0.2 0.9 -0.3
v -0.4 0 -0.4
v -0.4 0.8 -0.4
v 0.3 0 -0.4
v 0.3 0.8 -0.4
v -0.4 0 0.3
v 0.3 0 0.3
v -0.4 0 -0.4
v 0.3 0 -0.4
v -0.4 0.8 0.3
v 0.3 0.8 0.3
v -0.3 0.8 0.2
v 0.2 0.8 0.2
v -0.3 0.8 -0.3
v 0.2 0.8 -0.3
v -0.4 0.8 -0.4
v 0.3 0.8 -0.4
v -0.3 0.9 0.2
v 0.2 0.9 0.2
v -0.2 0.9 0.1
v 0.1 0.9 0.1
v -0.2 0.9 -0.2
v 0.1 0.9 -0.2
v -0.3 0.9 -0.3
v 0.2 0.9 -0.3
v -0.2 1 0.1
v 0.1 1 0.1
v -0.1 1 0
v 0 1 0
v -0.1 1 -0.1
v 0 1 -0.1
v -0.2 1 -0.2
v 0.1 1 -0.2
v -0.1 1.1 0
v 0 1.1 0
v -0.1 1.1 -0.1
v 0 1.1 -0.1

# faces
f 3/1/1 2/1/1 1/1/1
f 4/1/1 2/1/1 3/1/1
f 7/3/1 6/3/1 5/3/1
f 8/3/1 6/3/1 7/3/1
f 11/3/1 10/3/1 9/3/1
f 12/3/1 10/3/1 11/3/1
f 15/3/1 14/3/1 13/3/1
f 16/3/1 14/3/1 15/3/1
f 17/3/2 18/3/2 19/3/2
f 19/3/2 18/3/2 20/3/2
f 21/3/2 22/3/2 23/3/2
f 23/3/2 22/3/2 24/3/2
f 25/3/2 26/3/2 27/3/2
f 27/3/2 26/3/2 28/3/2
f 29/1/2 30/1/2 31/1/2
f 31/1/2 30/1/2 32/1/2
f 35/1/3 34/1/3 33/1/3
f 36/1/3 34/1/3 35/1/3
f 37/1/3 35/1/3 33/1/3
f 38/2/3 36/2/3 35/2/3
f 38/1/3 35/1/3 37/1/3
f 39/1/3 34/1/3 36/1/3
f 39/2/3 36/2/3 38/2/3
f 40/1/3 34/1/3 39/1/3
f 41/2/3 38/2/3 37/2/3
f 41/1/3 37/1/3 33/1/3
f 41/2/3 40/2/3 39/2/3
f 41/2/3 39/2/3 38/2/3
f 42/2/3 40/2/3 41/2/3
f 43/2/3 40/2/3 42/2/3
f 44/1/3 34/1/3 40/1/3
f 44/2/3 40/2/3 43/2/3
f 45/2/3 43/2/3 42/2/3
f 45/1/3 42/1/3 41/1/3
f 46/1/3 44/1/3 43/1/3
f 46/2/3 43/2/3 45/2/3
f 47/1/3 41/1/3 33/1/3
f 47/1/3 45/1/3 41/1/3
f 47/1/3 46/1/3 45/1/3
f 48/1/3 34/1/3 44/1/3
f 48/1/3 46/1/3 47/1/3
f 48/1/3 44/1/3 46/1/3
f 51/3/3 50/3/3 49/3/3
f 52/3/3 50/3/3 51/3/3
f 55/3/3 54/3/3 53/3/3
f 56/3/3 54/3/3 55/3/3
f 59/3/3 58/3/3 57/3/3
f 60/3/3 58/3/3 59/3/3
f 61/3/4 62/3/4 63/3/4
f 63/3/4 62/3/4 64/3/4
f 65/3/4 66/3/4 67/3/4
f 67/3/4 66/3/4 68/3/4
f 69/3/4 70/3/4 71/3/4
f 71/3/4 70/3/4 72/3/4
f 73/1/4 74/1/4 75/1/4
f 75/1/4 74/1/4 76/1/4
f 79/1/5 78/1/5 77/1/5
f 80/1/5 78/1/5 79/1/5
f 81/1/6 82/1/6 83/1/6
f 83/1/6 82/1/6 84/1/6
f 81/1/6 83/1/6 85/1/6
f 84/1/6 82/1/6 86/1/6
f 81/1/6 85/1/6 87/1/6
f 85/1/6 86/1/6 87/1/6
f 86/1/6 82/1/6 88/1/6
f 87/1/6 86/1/6 88/1/6
f 89/3/6 90/3/6 91/3/6
f 91/3/6 90/3/6 92/3/6
f 89/3/6 91/3/6 93/3/6
f 92/3/6 90/3/6 94/3/6
f 89/3/6 93/3/6 95/3/6
f 93/3/6 94/3/6 95/3/6
f 94/3/6 90/3/6 96/3/6
f 95/3/6 94/3/6 96/3/6
f 97/3/6 98/3/6 99/3/6
f 99/3/6 98/3/6 100/3/6
f 97/3/6 99/3/6 101/3/6
f 100/3/6 98/3/6 102/3/6
f 97/3/6 101/3/6 103/3/6
f 101/3/6 102/3/6 103/3/6
f 102/3/6 98/3/6 104/3/6
f 103/3/6 102/3/6 104/3/6
f 105/3/6 106/3/6 107/3/6
f 107/3/6 106/3/6 108/3/6
